<svg width="33" height="32" viewBox="0 0 33 32" fill="none" xmlns="http://www.w3.org/2000/svg">
<path fill-rule="evenodd" clip-rule="evenodd" d="M9.82202 14V8C9.82202 7.44772 10.2732 7 10.8298 7H22.9228C23.4794 7 23.9305 7.44772 23.9305 8V14C23.9305 14.5523 23.4794 15 22.9228 15H10.8298C10.2732 15 9.82202 14.5523 9.82202 14ZM21.915 13H11.8375V9H21.915V13Z" fill="#67667C"/>
<path fill-rule="evenodd" clip-rule="evenodd" d="M25.9461 3C25.9461 3 26.7809 3 27.3712 3.58579C27.3712 3.58579 27.9616 4.17157 27.9616 5V27C27.9616 27 27.9616 27.8284 27.3712 28.4142C27.3712 28.4142 26.7809 29 25.9461 29H7.80652C7.80652 29 6.97167 29 6.38134 28.4142C6.38134 28.4142 5.79102 27.8284 5.79102 27V5C5.79102 5 5.79102 4.17157 6.38134 3.58579C6.38134 3.58579 6.97167 3 7.80652 3H25.9461ZM25.9461 5H7.80652V27H25.9461V5Z" fill="#67667C"/>
<path d="M13.3492 18.5C13.3492 19.3284 12.6723 20 11.8375 20C11.0027 20 10.3259 19.3284 10.3259 18.5C10.3259 17.6716 11.0027 17 11.8375 17C12.6723 17 13.3492 17.6716 13.3492 18.5Z" fill="#67667C"/>
<path d="M18.3879 18.5C18.3879 19.3284 17.7111 20 16.8763 20C16.0415 20 15.3647 19.3284 15.3647 18.5C15.3647 17.6716 16.0415 17 16.8763 17C17.7111 17 18.3879 17.6716 18.3879 18.5Z" fill="#67667C"/>
<path d="M23.4267 18.5C23.4267 19.3284 22.7498 20 21.915 20C21.0803 20 20.4034 19.3284 20.4034 18.5C20.4034 17.6716 21.0803 17 21.915 17C22.7498 17 23.4267 17.6716 23.4267 18.5Z" fill="#67667C"/>
<path d="M13.3492 23.5C13.3492 24.3284 12.6723 25 11.8375 25C11.0027 25 10.3259 24.3284 10.3259 23.5C10.3259 22.6716 11.0027 22 11.8375 22C12.6723 22 13.3492 22.6716 13.3492 23.5Z" fill="#67667C"/>
<path d="M18.3879 23.5C18.3879 24.3284 17.7111 25 16.8763 25C16.0415 25 15.3647 24.3284 15.3647 23.5C15.3647 22.6716 16.0415 22 16.8763 22C17.7111 22 18.3879 22.6716 18.3879 23.5Z" fill="#67667C"/>
<path d="M23.4267 23.5C23.4267 24.3284 22.7498 25 21.915 25C21.0803 25 20.4034 24.3284 20.4034 23.5C20.4034 22.6716 21.0803 22 21.915 22C22.7498 22 23.4267 22.6716 23.4267 23.5Z" fill="#67667C"/>
</svg>
