<svg width="33" height="32" viewBox="0 0 33 32" fill="none" xmlns="http://www.w3.org/2000/svg">
<path d="M19.3486 4V11H26.4029L19.3486 4Z" fill="black" fill-opacity="0.1"/>
<path d="M25.3953 11.4142V16C25.3953 16.5523 25.8465 17 26.403 17C26.9596 17 27.4108 16.5523 27.4108 16V11C27.4108 10.7348 27.3046 10.4804 27.1156 10.2929L20.0613 3.29289C19.8724 3.10536 19.616 3 19.3488 3L7.25574 3C6.42089 3 5.83056 3.58579 5.83056 3.58579C5.24023 4.17157 5.24023 5 5.24023 5V16C5.24023 16.5523 5.69142 17 6.24799 17C6.80455 17 7.25574 16.5523 7.25574 16V5H18.9313L25.3953 11.4142Z" fill="#67667C"/>
<path d="M19.3486 12H26.4028C26.9594 12 27.4106 11.5523 27.4106 11C27.4106 10.4477 26.9594 10 26.4028 10H20.3563V4C20.3563 3.44772 19.9051 3 19.3486 3C18.792 3 18.3408 3.44772 18.3408 4V11C18.3408 11.5523 18.792 12 19.3486 12Z" fill="#67667C"/>
<path fill-rule="evenodd" clip-rule="evenodd" d="M5.24023 27V21C5.24023 20.4477 5.69142 20 6.24799 20H8.26349C8.26349 20 9.51576 20 10.4013 20.8787C10.4013 20.8787 11.2867 21.7574 11.2867 23C11.2867 23 11.2867 24.2426 10.4013 25.1213C10.4013 25.1213 9.51576 26 8.26349 26H7.25574V27C7.25574 27.5523 6.80455 28 6.24799 28C5.69142 28 5.24023 27.5523 5.24023 27ZM8.26349 24H7.25574V22H8.26349C8.26349 22 8.68091 22 8.97608 22.2929C8.97608 22.2929 9.27124 22.5858 9.27124 23C9.27124 23 9.27124 23.4142 8.97608 23.7071C8.97608 23.7071 8.68091 24 8.26349 24Z" fill="#67667C"/>
<path d="M22.876 21V27C22.876 27.5523 23.3272 28 23.8837 28C24.4403 28 24.8915 27.5523 24.8915 27V22H27.4109C27.9674 22 28.4186 21.5523 28.4186 21C28.4186 20.4477 27.9674 20 27.4109 20H23.8837C23.3272 20 22.876 20.4477 22.876 21Z" fill="#67667C"/>
<path d="M26.907 23.5H23.8837C23.3272 23.5 22.876 23.9477 22.876 24.5C22.876 25.0523 23.3272 25.5 23.8837 25.5H26.907C27.4635 25.5 27.9147 25.0523 27.9147 24.5C27.9147 23.9477 27.4635 23.5 26.907 23.5Z" fill="#67667C"/>
<path fill-rule="evenodd" clip-rule="evenodd" d="M14.5615 28C14.0049 28 13.5537 27.5523 13.5537 27V21C13.5537 20.4477 14.0049 20 14.5615 20H16.325C16.325 20 17.9947 20 19.1754 21.1716C19.1754 21.1716 20.356 22.3431 20.356 24C20.356 24 20.356 25.6569 19.1754 26.8284C19.1754 26.8284 17.9947 28 16.325 28H14.5615ZM16.325 26H15.5692V22H16.325C16.325 22 17.1599 22 17.7502 22.5858C17.7502 22.5858 18.3405 23.1716 18.3405 24C18.3405 24 18.3405 24.8284 17.7502 25.4142C17.7502 25.4142 17.1599 26 16.325 26Z" fill="#67667C"/>
</svg>
