<svg width="430" height="907" viewBox="0 0 430 907" fill="none" xmlns="http://www.w3.org/2000/svg">
<g opacity="0.2">
<path opacity="0.1" d="M80.998 647.918L288.464 771.406V980.202L80.998 855.596V647.918Z" fill="white"/>
<path opacity="0.2" d="M495.203 648.043L287.743 771.402V979.979L495.203 855.503V648.043Z" fill="white"/>
<path opacity="0.3" d="M80.998 648.603L288.464 523.996L495.93 648.603V649.535L288.464 774.141L80.998 649.535V648.603Z" fill="white"/>
<path opacity="0.1" d="M34.7949 824.664L121.299 876.153V963.212L34.7949 911.256V824.664Z" fill="white"/>
<path opacity="0.2" d="M207.5 824.717L120.999 876.152V963.119L207.5 911.218V824.717Z" fill="white"/>
<path opacity="0.3" d="M34.7949 824.95L121.299 772.994L207.803 824.95V825.338L121.299 877.293L34.7949 825.338V824.95Z" fill="white"/>
<path opacity="0.1" d="M-37.3633 124.289L170.103 247.777V456.573L-37.3633 331.967V124.289Z" fill="white"/>
<path opacity="0.2" d="M376.842 124.414L169.382 247.773V456.35L376.842 331.874V124.414Z" fill="white"/>
<path opacity="0.3" d="M-37.3633 124.972L170.103 0.365234L377.568 124.972V125.904L170.103 250.51L-37.3633 125.904V124.972Z" fill="white"/>
<path opacity="0.1" d="M-15.2031 482.852L71.3008 534.341V621.399L-15.2031 569.444V482.852Z" fill="white"/>
<path opacity="0.2" d="M157.502 482.904L71.0005 534.339V621.307L157.502 569.406V482.904Z" fill="white"/>
<path opacity="0.3" d="M-15.2031 483.137L71.3008 431.182L157.805 483.137V483.526L71.3008 535.481L-15.2031 483.526V483.137Z" fill="white"/>
<path opacity="0.1" d="M282.172 304.348L368.676 355.837V442.895L282.172 390.94V304.348Z" fill="white"/>
<path opacity="0.2" d="M454.877 304.4L368.375 355.835V442.803L454.877 390.902V304.4Z" fill="white"/>
<path opacity="0.3" d="M282.172 304.633L368.676 252.678L455.18 304.633V305.022L368.676 356.977L282.172 305.022V304.633Z" fill="white"/>
</g>
</svg>
