<svg width="33" height="32" viewBox="0 0 33 32" fill="none" xmlns="http://www.w3.org/2000/svg">
<path fill-rule="evenodd" clip-rule="evenodd" d="M3.02344 7C3.02344 7 3.02344 6.17157 3.61377 5.58579C3.61377 5.58579 4.20409 5 5.03894 5H27.2095C27.2095 5 28.0443 5 28.6347 5.58579C28.6347 5.58579 29.225 6.17157 29.225 7V25C29.225 25 29.225 25.8284 28.6347 26.4142C28.6347 26.4142 28.0443 27 27.2095 27H5.03894C5.03894 27 4.20409 27 3.61376 26.4142C3.61376 26.4142 3.02344 25.8284 3.02344 25V7ZM5.03894 7V25H27.2095V7H5.03894Z" fill="#67667C"/>
<path d="M22.1762 18.4195L27.5046 23.707C27.6936 23.8945 27.95 23.9999 28.2172 23.9999C28.4845 23.9999 28.7408 23.8945 28.9298 23.707C29.1188 23.5195 29.225 23.2651 29.225 22.9999C29.225 22.7347 29.1188 22.4803 28.9298 22.2928L23.6013 17.0053C23.3226 16.7244 22.9491 16.5692 22.9491 16.5692C22.5756 16.4141 22.1707 16.4141 22.1707 16.4141C21.7658 16.4141 21.3923 16.5692 21.3923 16.5692C21.0188 16.7244 20.7347 17.0107 20.7347 17.0107L18.1452 19.5803L18.1397 19.5857L12.5161 14.0053C12.2374 13.7244 11.8639 13.5692 11.8639 13.5692C11.4904 13.4141 11.0855 13.4141 11.0855 13.4141C10.6805 13.4141 10.307 13.5692 10.307 13.5692C9.93353 13.7244 9.64941 14.0107 9.64941 14.0107L3.31898 20.2924C3.12999 20.4799 3.02344 20.7347 3.02344 20.9999C3.02344 21.0159 3.02383 21.0319 3.0246 21.0479C3.03664 21.2962 3.14145 21.5312 3.3186 21.707C3.50759 21.8945 3.76392 21.9999 4.03119 21.9999C4.29846 21.9999 4.55479 21.8945 4.74378 21.707L11.0855 15.4141L11.0909 15.4195L16.7037 20.9891C16.9878 21.2753 17.3613 21.4305 17.3613 21.4305C17.7348 21.5857 18.1397 21.5857 18.1397 21.5857C18.5446 21.5857 18.9181 21.4305 18.9181 21.4305C19.2916 21.2753 19.5703 20.9945 19.5703 20.9945L22.1707 18.4141L22.1762 18.4195Z" fill="#67667C"/>
<path d="M21.163 12.5C21.163 13.3284 20.4861 14 19.6513 14C18.8166 14 18.1397 13.3284 18.1397 12.5C18.1397 11.6716 18.8166 11 19.6513 11C20.4861 11 21.163 11.6716 21.163 12.5Z" fill="#67667C"/>
</svg>
