<svg width="33" height="32" viewBox="0 0 33 32" fill="none" xmlns="http://www.w3.org/2000/svg">
<path fill-rule="evenodd" clip-rule="evenodd" d="M10.6281 8C10.6281 8 10.6281 5.51472 12.3991 3.75736C12.3991 3.75736 14.1701 2 16.6746 2C16.6746 2 19.1792 2 20.9501 3.75736C20.9501 3.75736 22.7211 5.51472 22.7211 8V16C22.7211 16 22.7211 18.4853 20.9501 20.2426C20.9501 20.2426 19.1792 22 16.6746 22C16.6746 22 14.1701 22 12.3991 20.2426C12.3991 20.2426 10.6281 18.4853 10.6281 16V8ZM12.6436 8L12.6436 16C12.6436 16 12.6436 17.6569 13.8243 18.8284C13.8243 18.8284 15.0049 20 16.6746 20C16.6746 20 18.3443 20 19.525 18.8284C19.525 18.8284 20.7056 17.6569 20.7056 16V8C20.7056 8 20.7056 6.34315 19.525 5.17157C19.525 5.17157 18.3443 4 16.6746 4C16.6746 4 15.0049 4 13.8243 5.17157C13.8243 5.17157 12.6436 6.34315 12.6436 8Z" fill="#67667C"/>
<path d="M15.6669 25V29C15.6669 29.5523 16.118 30 16.6746 30C17.2312 30 17.6824 29.5523 17.6824 29V25C17.6824 24.4477 17.2312 24 16.6746 24C16.118 24 15.6669 24.4477 15.6669 25Z" fill="#67667C"/>
<path d="M11.3111 21.9299C9.01681 19.9069 8.65598 16.8824 8.65598 16.8824C8.59593 16.3791 8.16595 16 7.65521 16L7.65029 16C7.61234 16.0002 7.57443 16.0025 7.53674 16.0069C7.02954 16.0665 6.64746 16.4932 6.64746 17L6.64747 17.0049C6.64766 17.0425 6.64999 17.0802 6.65445 17.1176C7.10547 20.8967 9.97231 23.425 9.97231 23.425C12.8393 25.9529 16.6746 25.9529 16.6746 25.9529C20.5099 25.9529 23.3769 23.425 23.3769 23.425C26.2435 20.8973 26.6946 17.1184 26.6946 17.1184C26.6993 17.0794 26.7017 17.0393 26.7017 17C26.7017 16.9783 26.701 16.9566 26.6996 16.9349C26.668 16.4538 26.2949 16.0636 25.8125 16.0069C25.7731 16.0023 25.7336 16 25.694 16L25.6663 16.0004C25.4495 16.0063 25.2404 16.0814 25.0701 16.2147C24.8602 16.3789 24.7246 16.6191 24.6932 16.8824C24.3324 19.9069 22.0381 21.9299 22.0381 21.9299C19.7438 23.9529 16.6746 23.9529 16.6746 23.9529C13.6054 23.9529 11.3111 21.9299 11.3111 21.9299Z" fill="#67667C"/>
</svg>
