<svg width="24" height="24" viewBox="0 0 24 24" fill="none" xmlns="http://www.w3.org/2000/svg">
<path fill-rule="evenodd" clip-rule="evenodd" d="M22.6751 0.0707597C22.6751 0.0707597 22.2176 -0.0462648 21.7643 0.0840014L21.7608 0.0850162L1.3833 5.82442C1.3833 5.82442 0.849967 5.97023 0.497225 6.396C0.497225 6.396 0.144483 6.82177 0.100391 7.37291C0.100391 7.37291 0.0562998 7.92405 0.336867 8.40049C0.336867 8.40049 0.617434 8.87692 1.10859 9.10001L10.4703 13.5293L14.894 22.8789C14.894 22.8789 15.1228 23.3823 15.5992 23.6628C15.5992 23.6628 16.0756 23.9434 16.6268 23.8993C16.6268 23.8993 17.1779 23.8552 17.6037 23.5025C17.6037 23.5025 18.0295 23.1497 18.1735 22.6228L23.9133 2.24375C23.9133 2.24375 24.047 1.78633 23.9289 1.3246C23.9289 1.3246 23.8108 0.862876 23.4738 0.525871C23.4738 0.525871 23.1368 0.188869 22.6751 0.0707597ZM1.84482 7.51247L22.2283 1.77144L16.489 22.1484L16.4872 22.1549L12.0519 12.7802C12.0519 12.7802 11.7884 12.2113 11.213 11.9448L1.85703 7.51813L1.84482 7.51247Z" fill="#353350"/>
<path d="M16.6918 8.54535C16.8559 8.38125 16.9484 8.15836 16.9484 7.9263C16.9484 7.69424 16.8562 7.47168 16.6922 7.30758L16.6846 7.30012C16.5212 7.1409 16.3016 7.0513 16.0734 7.0513C16.0472 7.0513 16.021 7.05248 15.9948 7.05484C15.7907 7.07325 15.5996 7.1627 15.4547 7.30758L10.5113 12.251C10.3472 12.4151 10.2547 12.638 10.2547 12.8701C10.2547 12.8841 10.255 12.8981 10.2557 12.9121C10.2661 13.1294 10.3572 13.335 10.511 13.4888C10.6751 13.6529 10.8976 13.7451 11.1297 13.7451C11.3617 13.7451 11.5843 13.6529 11.7484 13.4888L16.6918 8.54535Z" fill="#353350"/>
</svg>
