<svg width="33" height="32" viewBox="0 0 33 32" fill="none" xmlns="http://www.w3.org/2000/svg">
<path d="M15.7679 7V25C15.7679 25.5523 16.2191 26 16.7757 26C17.3323 26 17.7835 25.5523 17.7835 25V7C17.7835 6.44772 17.3323 6 16.7757 6C16.2191 6 15.7679 6.44772 15.7679 7Z" fill="#67667C"/>
<path d="M25.8455 8V11C25.8455 11.5523 26.2967 12 26.8532 12C27.4098 12 27.861 11.5523 27.861 11V7C27.861 6.44772 27.4098 6 26.8532 6H6.69818C6.14162 6 5.69043 6.44772 5.69043 7V11C5.69043 11.5523 6.14162 12 6.69818 12C7.25475 12 7.70593 11.5523 7.70593 11V8H25.8455Z" fill="#67667C"/>
<path d="M12.7447 26H20.8067C21.3633 26 21.8145 25.5523 21.8145 25C21.8145 24.4477 21.3633 24 20.8067 24H12.7447C12.1881 24 11.7369 24.4477 11.7369 25C11.7369 25.5523 12.1881 26 12.7447 26Z" fill="#67667C"/>
</svg>
