<svg width="27" height="22" viewBox="0 0 27 22" fill="none" xmlns="http://www.w3.org/2000/svg">
<path fill-rule="evenodd" clip-rule="evenodd" d="M0.0234375 2C0.0234375 2 0.0234375 1.17157 0.613765 0.585787C0.613765 0.585787 1.20409 0 2.03894 0H24.2095C24.2095 0 25.0443 0 25.6347 0.585786C25.6347 0.585786 26.225 1.17157 26.225 2V20C26.225 20 26.225 20.8284 25.6347 21.4142C25.6347 21.4142 25.0443 22 24.2095 22H2.03894C2.03894 22 1.20409 22 0.613765 21.4142C0.613765 21.4142 0.0234375 20.8284 0.0234375 20V2ZM2.03894 2V20H24.2095V2H2.03894Z" fill="#67667C"/>
<path d="M19.1762 13.4195L24.5046 18.707C24.6936 18.8945 24.95 18.9999 25.2172 18.9999C25.4845 18.9999 25.7408 18.8945 25.9298 18.707C26.1188 18.5195 26.225 18.2651 26.225 17.9999C26.225 17.7347 26.1188 17.4803 25.9298 17.2928L20.6013 12.0053C20.3226 11.7244 19.9491 11.5692 19.9491 11.5692C19.5756 11.4141 19.1707 11.4141 19.1707 11.4141C18.7658 11.4141 18.3923 11.5692 18.3923 11.5692C18.0188 11.7244 17.7347 12.0107 17.7347 12.0107L15.1452 14.5803L15.1397 14.5857L9.51606 9.00528C9.23738 8.72443 8.86388 8.56925 8.86388 8.56925C8.49037 8.41406 8.08545 8.41406 8.08545 8.41406C7.68053 8.41406 7.30703 8.56925 7.30703 8.56925C6.93353 8.72443 6.64941 9.01072 6.64941 9.01072L0.318982 15.2924C0.129991 15.4799 0.0234375 15.7347 0.0234375 15.9999C0.0234376 16.0159 0.0238255 16.0319 0.0246009 16.0479C0.0366355 16.2962 0.141449 16.5312 0.318601 16.707C0.507591 16.8945 0.763917 16.9999 1.03119 16.9999C1.29846 16.9999 1.55479 16.8945 1.74378 16.707L8.08545 10.4141L8.09089 10.4195L13.7037 15.9891C13.9878 16.2753 14.3613 16.4305 14.3613 16.4305C14.7348 16.5857 15.1397 16.5857 15.1397 16.5857C15.5446 16.5857 15.9181 16.4305 15.9181 16.4305C16.2916 16.2753 16.5703 15.9945 16.5703 15.9945L19.1707 13.4141L19.1762 13.4195Z" fill="#67667C"/>
<path d="M18.163 7.5C18.163 8.32843 17.4861 9 16.6513 9C15.8166 9 15.1397 8.32843 15.1397 7.5C15.1397 6.67157 15.8166 6 16.6513 6C17.4861 6 18.163 6.67157 18.163 7.5Z" fill="#67667C"/>
</svg>
