<svg width="33" height="32" viewBox="0 0 33 32" fill="none" xmlns="http://www.w3.org/2000/svg">
<path fill-rule="evenodd" clip-rule="evenodd" d="M1.69873 7.08579C1.69873 7.08579 2.28905 6.5 3.1239 6.5H19.2479C19.2479 6.5 21.3351 6.5 22.8109 7.96447C22.8109 7.96447 24.2867 9.42894 24.2867 11.5V23.5C24.2867 23.5 24.2867 24.3284 23.6964 24.9142C23.6964 24.9142 23.106 25.5 22.2712 25.5H6.14716C6.14716 25.5 4.06004 25.5 2.58422 24.0355C2.58422 24.0355 1.1084 22.5711 1.1084 20.5V8.5C1.1084 8.5 1.1084 7.67157 1.69873 7.08579ZM3.1239 8.5V20.5C3.1239 20.5 3.1239 21.7426 4.00939 22.6213C4.00939 22.6213 4.89489 23.5 6.14716 23.5H22.2712V11.5C22.2712 11.5 22.2712 10.2574 21.3857 9.37868C21.3857 9.37868 20.5002 8.5 19.2479 8.5H3.1239Z" fill="#67667C"/>
<path d="M29.3255 20.2768L23.7789 17.1318C23.6267 17.0454 23.4543 17 23.2789 17L23.2563 17.0003C23.1743 17.0021 23.0929 17.0138 23.0138 17.0352C22.7559 17.105 22.5366 17.2736 22.404 17.5039C22.317 17.655 22.2712 17.826 22.2712 18C22.2712 18.02 22.2718 18.0399 22.273 18.0598C22.2934 18.3968 22.4836 18.7008 22.779 18.8682L29.8332 22.8682C30.3165 23.1423 30.932 22.9757 31.2082 22.4961C31.2952 22.345 31.341 22.174 31.341 22V10C31.341 9.44772 30.8898 9 30.3332 9C30.1578 9 29.9855 9.04542 29.8332 9.13176L22.779 13.1318C22.465 13.3098 22.2712 13.6411 22.2712 14C22.2712 14.014 22.2715 14.028 22.2721 14.0419C22.2788 14.2016 22.3241 14.3574 22.404 14.4961C22.5366 14.7264 22.7559 14.895 23.0138 14.9648C23.1002 14.9881 23.1894 15 23.2789 15L23.3062 14.9996C23.4723 14.9952 23.6347 14.95 23.7789 14.8682L29.3255 11.7232V20.2768Z" fill="#67667C"/>
</svg>
