<svg width="28" height="28" viewBox="0 0 28 28" fill="none" xmlns="http://www.w3.org/2000/svg">
<path d="M21.2563 5.50628L5.50628 21.2563C5.34219 21.4204 5.25 21.6429 5.25 21.875C5.25 22.1071 5.34219 22.3296 5.50628 22.4937C5.67038 22.6578 5.89294 22.75 6.125 22.75C6.35706 22.75 6.57962 22.6578 6.74372 22.4937L22.4937 6.74372C22.6578 6.57962 22.75 6.35706 22.75 6.125C22.75 5.89294 22.6578 5.67038 22.4937 5.50628C22.3296 5.34219 22.1071 5.25 21.875 5.25C21.6429 5.25 21.4204 5.34219 21.2563 5.50628Z" fill="#353350"/>
<path d="M6.74372 5.50628C6.57962 5.34219 6.35706 5.25 6.125 5.25C5.89294 5.25 5.67038 5.34219 5.50628 5.50628C5.34219 5.67038 5.25 5.89294 5.25 6.125C5.25 6.35706 5.34219 6.57962 5.50628 6.74372L21.2563 22.4937C21.4204 22.6578 21.6429 22.75 21.875 22.75C22.1071 22.75 22.3296 22.6578 22.4937 22.4937C22.6578 22.3296 22.75 22.1071 22.75 21.875C22.75 21.6429 22.6578 21.4204 22.4937 21.2563L6.74372 5.50628Z" fill="#353350"/>
</svg>
